<svg width="17" height="16" viewBox="0 0 17 16" fill="none" xmlns="http://www.w3.org/2000/svg">
<path d="M5.66038 0C3.05311 0 0.933105 2.12 0.933105 4.72727V11.2727C0.933105 13.88 3.05311 16 5.66038 16H12.2058C14.8131 16 16.9331 13.88 16.9331 11.2727V4.72727C16.9331 2.12 14.8131 0 12.2058 0H5.66038ZM13.2967 2.90909C13.6967 2.90909 14.024 3.23636 14.024 3.63636C14.024 4.03636 13.6967 4.36364 13.2967 4.36364C12.8967 4.36364 12.5695 4.03636 12.5695 3.63636C12.5695 3.23636 12.8967 2.90909 13.2967 2.90909ZM8.93311 4C11.1404 4 12.9331 5.79273 12.9331 8C12.9331 10.2073 11.1404 12 8.93311 12C6.72583 12 4.93311 10.2073 4.93311 8C4.93311 5.79273 6.72583 4 8.93311 4ZM8.93311 4.72727C7.12947 4.72727 5.66038 6.19636 5.66038 8C5.66038 9.80364 7.12947 11.2727 8.93311 11.2727C10.7367 11.2727 12.2058 9.80364 12.2058 8C12.2058 6.19636 10.7367 4.72727 8.93311 4.72727Z" fill="white"/>
</svg>
