<svg width="19" height="18" viewBox="0 0 19 18" fill="none" xmlns="http://www.w3.org/2000/svg">
<path d="M18.6412 0.237621C18.3171 -0.0372146 17.8081 -0.0765385 17.2817 0.134774H17.2809C16.7273 0.356889 1.61134 6.84059 0.995981 7.10549C0.884059 7.14438 -0.093423 7.5091 0.00726364 8.32151C0.097147 9.05397 0.882762 9.35733 0.978695 9.39233L4.82164 10.7082C5.0766 11.5569 6.01649 14.6881 6.22434 15.357C6.35398 15.774 6.56529 16.322 6.93563 16.4348C7.26059 16.5601 7.58383 16.4456 7.79298 16.2814L10.1425 14.1021L13.9353 17.0601L14.0256 17.1141C14.2832 17.2282 14.5299 17.2852 14.7654 17.2852C14.9473 17.2852 15.1219 17.2511 15.2887 17.1828C15.857 16.9494 16.0843 16.408 16.1081 16.3466L18.9411 1.62087C19.114 0.834395 18.8737 0.434241 18.6412 0.237621ZM8.21085 11.2345L6.91446 14.6916L5.61806 10.3702L15.5571 3.02401L8.21085 11.2345Z" fill="white"/>
</svg>
