<svg width="24" height="17" viewBox="0 0 24 17" fill="none" xmlns="http://www.w3.org/2000/svg">
<path d="M15.8312 0.700829L14.7798 1.82231C14.5251 2.09391 14.5293 2.53569 14.789 2.80174L19.1132 7.23134H0.642857C0.287839 7.23134 0 7.53837 0 7.91706V9.51706C0 9.89574 0.287839 10.2028 0.642857 10.2028H19.1132L14.7891 14.6324C14.5293 14.8984 14.5251 15.3402 14.7798 15.6118L15.8312 16.7333C16.0823 17.0011 16.4893 17.0011 16.7404 16.7333L23.801 9.20191C24.0521 8.93414 24.0521 8.49997 23.801 8.23214L16.7403 0.700829C16.4892 0.433057 16.0822 0.433057 15.8312 0.700829Z" fill="#E07E44"/>
</svg>
