<svg width="24" height="17" viewBox="0 0 24 17" fill="none" xmlns="http://www.w3.org/2000/svg">
<path d="M8.16883 0.700829L9.22023 1.82231C9.47485 2.09391 9.47067 2.53569 9.21096 2.80174L4.88678 7.23134H23.3571C23.7122 7.23134 24 7.53837 24 7.91706V9.51706C24 9.89574 23.7122 10.2028 23.3571 10.2028H4.88678L9.21091 14.6324C9.47068 14.8984 9.47485 15.3402 9.22017 15.6118L8.16878 16.7333C7.91775 17.0011 7.51071 17.0011 7.25962 16.7333L0.198959 9.20191C-0.0520763 8.93414 -0.0520763 8.49997 0.198959 8.23214L7.25973 0.700829C7.51077 0.433057 7.9178 0.433057 8.16883 0.700829Z" fill="#E07E44"/>
</svg>
