<svg width="16" height="16" viewBox="0 0 16 16" fill="none" xmlns="http://www.w3.org/2000/svg">
<path d="M10.3795 8L15.7654 2.61408C16.0769 2.30259 16.0769 1.7971 15.7654 1.4851L14.5139 0.233621C14.2024 -0.0778738 13.6969 -0.0778738 13.3849 0.233621L7.9995 5.62004L2.61358 0.234121C2.30209 -0.0773737 1.7966 -0.0773737 1.4846 0.234121L0.233621 1.4851C-0.0778738 1.7966 -0.0778738 2.30209 0.233621 2.61408L5.61954 8L0.233621 13.3859C-0.0778738 13.6974 -0.0778738 14.2029 0.233621 14.5149L1.4851 15.7664C1.7966 16.0779 2.30209 16.0779 2.61408 15.7664L7.9995 10.38L13.3854 15.7659C13.6969 16.0774 14.2024 16.0774 14.5144 15.7659L15.7659 14.5144C16.0774 14.2029 16.0774 13.6974 15.7659 13.3854L10.3795 8Z" fill="white"/>
</svg>
