<svg width="18" height="18" viewBox="0 0 18 18" fill="none" xmlns="http://www.w3.org/2000/svg">
<path d="M17.3462 0.86498L13.69 0.0212298C13.2927 -0.0701765 12.8849 0.137245 12.7232 0.509902L11.0357 4.4474C10.888 4.79193 10.9865 5.19623 11.2783 5.43178L13.4087 7.17553C12.1431 9.87201 9.93178 12.115 7.17904 13.4052L5.43529 11.2747C5.19623 10.9829 4.79545 10.8845 4.45092 11.0322L0.513419 12.7197C0.137247 12.8849 -0.0701752 13.2927 0.021231 13.69L0.864981 17.3462C0.952872 17.7259 1.29037 18.0001 1.68764 18.0001C10.6912 18.0001 18.0001 10.7052 18.0001 1.68764C18.0001 1.29389 17.7294 0.95287 17.3462 0.86498Z" fill="#276AA5"/>
</svg>
